<svg width="65" height="64" viewBox="0 0 65 64" fill="none" xmlns="http://www.w3.org/2000/svg">
<path d="M30.5 53.7333V33.1333L12.5 22.7333V43.3333L30.5 53.7333ZM34.5 53.7333L52.5 43.3333V22.6667L34.5 33.1225V53.7333ZM32.5 29.7333L50.2333 19.4L32.5 9.13333L14.7 19.4L32.5 29.7333ZM10.5 46.8C9.86667 46.4255 9.375 45.9319 9.025 45.3191C8.675 44.7064 8.5 44.0444 8.5 43.3333V20.6667C8.5 19.9556 8.675 19.2936 9.025 18.6809C9.375 18.0681 9.86667 17.5745 10.5 17.2L30.5 5.66666C31.1368 5.31111 31.8071 5.13333 32.5109 5.13333C33.2148 5.13333 33.8778 5.31111 34.5 5.66666L54.5 17.2C55.1333 17.5745 55.625 18.0681 55.975 18.6809C56.325 19.2936 56.5 19.9556 56.5 20.6667V43.3333C56.5 44.0444 56.325 44.7064 55.975 45.3191C55.625 45.9319 55.1333 46.4255 54.5 46.8L34.5 58.3333C33.8632 58.6889 33.1929 58.8667 32.4891 58.8667C31.7852 58.8667 31.1222 58.6889 30.5 58.3333L10.5 46.8Z" fill="#6D6D6D"/>
</svg>
