<svg width="65" height="64" viewBox="0 0 65 64" fill="none" xmlns="http://www.w3.org/2000/svg">
<path d="M18.4333 56L17.8333 51.6L26.3 28.2667C26.7889 28.7556 27.3333 29.1556 27.9333 29.4667C28.5333 29.7778 29.1667 30.0444 29.8333 30.2667L21.6333 52.8667L18.4333 56ZM46.5667 56L43.3667 52.8667L35.0333 30.3333C35.7 30.1111 36.3445 29.8444 36.9667 29.5333C37.5889 29.2222 38.1445 28.8222 38.6333 28.3333L47.1667 51.6L46.5667 56ZM32.5 29.3333C30.2778 29.3333 28.3889 28.5556 26.8333 27C25.2778 25.4444 24.5 23.5556 24.5 21.3333C24.5 19.4667 25.0445 17.8111 26.1333 16.3667C27.2222 14.9222 28.6778 14 30.5 13.6V8H34.5V13.6C36.3222 14 37.7778 14.9222 38.8667 16.3667C39.9556 17.8111 40.5 19.4667 40.5 21.3333C40.5 23.5556 39.7222 25.4444 38.1667 27C36.6111 28.5556 34.7222 29.3333 32.5 29.3333ZM32.5 25.3333C33.6111 25.3333 34.5556 24.9444 35.3333 24.1667C36.1111 23.3889 36.5 22.4444 36.5 21.3333C36.5 20.2222 36.1111 19.2778 35.3333 18.5C34.5556 17.7222 33.6111 17.3333 32.5 17.3333C31.3889 17.3333 30.4445 17.7222 29.6667 18.5C28.8889 19.2778 28.5 20.2222 28.5 21.3333C28.5 22.4444 28.8889 23.3889 29.6667 24.1667C30.4445 24.9444 31.3889 25.3333 32.5 25.3333Z" fill="#6D6D6D"/>
</svg>
