<svg width="65" height="64" viewBox="0 0 65 64" fill="none" xmlns="http://www.w3.org/2000/svg">
<path d="M38.5 53.3333V49.3333H46.5C47.4333 49.3333 48.2222 49.0139 48.8667 48.375C49.5111 47.7361 49.8333 46.9444 49.8333 46V39.3333C49.8333 37.6889 50.3333 36.2222 51.3333 34.9333C52.3333 33.6444 53.6111 32.7555 55.1667 32.2667V31.7333C53.6111 31.2889 52.3333 30.4111 51.3333 29.1C50.3333 27.7889 49.8333 26.3111 49.8333 24.6667V18C49.8333 17.0555 49.5139 16.2639 48.875 15.625C48.2361 14.9861 47.4444 14.6667 46.5 14.6667H38.5V10.6667H46.5C48.5444 10.6667 50.2778 11.3796 51.7 12.8055C53.1222 14.2315 53.8333 15.963 53.8333 18V24.6667C53.8333 25.6111 54.1528 26.4028 54.7917 27.0417C55.4305 27.6805 56.2222 28 57.1667 28H59.1667V36H57.1667C56.2222 36 55.4305 36.3194 54.7917 36.9583C54.1528 37.5972 53.8333 38.3889 53.8333 39.3333V46C53.8333 48.037 53.1204 49.7685 51.6945 51.1945C50.2685 52.6204 48.537 53.3333 46.5 53.3333H38.5ZM18.5 53.3333C16.4556 53.3333 14.7222 52.6204 13.3 51.1945C11.8778 49.7685 11.1667 48.037 11.1667 46V39.3333C11.1667 38.3889 10.8472 37.5972 10.2083 36.9583C9.56944 36.3194 8.77777 36 7.83333 36H5.83333V28H7.83333C8.77777 28 9.56944 27.6805 10.2083 27.0417C10.8472 26.4028 11.1667 25.6111 11.1667 24.6667V18C11.1667 15.963 11.8796 14.2315 13.3055 12.8055C14.7315 11.3796 16.463 10.6667 18.5 10.6667H26.5V14.6667H18.5C17.5667 14.6667 16.7778 14.9861 16.1333 15.625C15.4889 16.2639 15.1667 17.0555 15.1667 18V24.6667C15.1667 26.3111 14.6667 27.7889 13.6667 29.1C12.6667 30.4111 11.3889 31.2889 9.83333 31.7333V32.2667C11.3889 32.7555 12.6667 33.6444 13.6667 34.9333C14.6667 36.2222 15.1667 37.6889 15.1667 39.3333V46C15.1667 46.9444 15.4861 47.7361 16.125 48.375C16.7639 49.0139 17.5555 49.3333 18.5 49.3333H26.5V53.3333H18.5Z" fill="#6D6D6D"/>
</svg>
